# xmcd CD database file
#
# Track frame offsets:
#	150
#	70139
#	90861
#	115840
#	141602
#	169414
#	195662
#
# Disc length: 2816 seconds
#
# Revision: 0
# Processed by: cddbd v1.5.2PL0 Copyright (c) Steve Scherf et al.
# Submitted via: CDex 1.70beta2
#
DISCID=600afe07
DTITLE=Sebastian Studnitzky - Music For Magic Places
DYEAR=2012
DGENRE=Jazz
TTITLE0=Music For Magic Places
TTITLE1=Quiet
TTITLE2=Apsara
TTITLE3=Reminiscing
TTITLE4=Do Mar
TTITLE5=Drone
TTITLE6=Solbakken
EXTD=YEAR: 2012
EXTT0=
EXTT1=
EXTT2=
EXTT3=
EXTT4=
EXTT5=
EXTT6=
PLAYORDER=
